<svg width="450" height="301" viewBox="0 0 450 301" fill="none" xmlns="http://www.w3.org/2000/svg">
<g clip-path="url(#clip0_2358_19457)">
<ellipse cx="342.869" cy="289.369" rx="41.6349" ry="6.45048" fill="#0BB3E8"/>
<ellipse cx="224.645" cy="289.369" rx="41.6349" ry="6.45048" fill="#0BB3E8"/>
<ellipse cx="106.42" cy="289.369" rx="41.6349" ry="6.45048" fill="#0BB3E8"/>
<path d="M101.338 49.998C136.042 43.6377 116.271 33.3552 142.491 14.1136C168.446 -5.45149 218.473 18.0682 259.317 20.194C306.436 22.6464 372.159 10.8878 398.197 42.1112C424.562 73.4224 383.916 115.412 403.001 143.762C421.758 172.024 417.377 206.715 388.099 220.338C358.821 233.962 304.255 226.665 264.843 225.702C225.431 224.74 200.454 230.17 167.881 233.818C135.635 237.554 95.4655 239.419 77.0282 224.376C58.5908 209.333 68.2053 195.652 49.2984 165.329C30.3283 135.241 20.8239 123.826 30.2359 88.9104C41.5683 46.8704 66.6966 56.1226 101.338 49.998Z" fill="#0BB3E8"/>
<path d="M222.059 262.37C222.134 263.177 223.744 272.878 223.744 272.878L222.526 275.3L221.209 273.95C221.209 273.95 216.673 262.362 217.217 262.363L222.059 262.37Z" fill="#FFBDC6"/>
<path d="M234.544 276.792C234.417 277.592 233.577 287.39 233.577 287.39L231.797 289.435L230.855 287.801C230.855 287.801 229.327 275.451 229.854 275.587L234.544 276.792Z" fill="#FFBDC6"/>
<path d="M227.317 171.898C227.52 176.024 219.127 179.794 218.677 184.59C218.226 189.385 226.01 192.541 231.777 182.704C237.545 172.867 234.234 169.425 234.234 169.425C234.234 169.425 227.114 167.772 227.317 171.898Z" fill="#FFBDC6"/>
<path d="M236.021 215.157C242.468 219.724 235.407 244.085 235.05 247.839C234.693 251.594 234.16 257.396 234.16 257.396C234.16 257.396 235.327 264.05 235.238 266.069C235.149 268.089 234.663 280.166 234.438 280.848C234.213 281.529 230.484 281.597 228.527 280.848C230.044 279.546 226.726 237.69 226.488 236.15C226.25 234.609 225.75 227.229 225.75 227.229L220.901 243.043C220.901 243.043 221.502 256.326 221.744 258.617C221.985 260.908 222.468 262.826 222.468 262.826L221.744 266.069C221.744 266.069 220.285 267.869 217.01 266.844C216.846 264.559 214.768 255.401 214.187 253.338C213.605 251.274 212.655 245.341 212.781 239.684C212.907 234.028 215.479 226.349 215.644 224.59C215.81 222.83 216.275 210.906 217.16 211.603C218.046 212.301 236.021 215.157 236.021 215.157Z" fill="#0A3A59"/>
<path d="M227.594 215.499L237.165 215.208L237.543 216.262C236.997 216.541 235.494 217.127 233.849 217.243C231.792 217.389 229.609 217.425 227.594 217.461C225.579 217.498 221.675 216.117 220.458 215.499L220.4 215.469C219.184 214.853 217.436 213.966 217.477 213.536C217.511 213.188 217.799 212.083 217.939 211.574L227.594 215.499Z" fill="#072D45"/>
<path d="M236.067 247.987C236.327 244.2 241.784 219.532 237.088 214.925C236.922 214.95 236.377 215.501 236.775 217.112C237.272 219.125 237.578 223.571 237.456 226.256C237.333 228.94 235.79 242.194 235.419 244.879C235.048 247.563 233.713 255.197 234.081 258.636C234.449 262.076 235.463 265.851 235.048 268.787C234.716 271.136 234.272 278.14 234.088 281.109C234.583 280.99 234.583 281.069 234.99 280.711C235.165 279.716 236.139 268.412 236.204 266.375C236.269 264.339 235.419 257.627 235.419 257.627C235.419 257.627 235.807 251.774 236.067 247.987Z" fill="#072D45"/>
<path d="M222.436 272.268C223.07 271.962 223.832 272.147 224.254 272.71L225.196 273.965C225.752 274.706 225.494 275.77 224.66 276.174L215.421 280.641C214.79 280.946 214.03 280.684 213.722 280.054C213.468 279.537 213.594 278.914 214.028 278.534L219.522 273.735C219.621 273.648 219.731 273.576 219.85 273.518L222.436 272.268Z" fill="#0D2035"/>
<path d="M234.493 287.542L234.798 289.547C234.835 289.764 234.843 289.985 234.821 290.196C234.8 290.408 234.749 290.605 234.672 290.776C234.596 290.946 234.495 291.085 234.376 291.185C234.258 291.285 234.124 291.343 233.984 291.355L230.682 291.48C230.55 291.479 230.417 291.438 230.29 291.358C230.163 291.279 230.044 291.163 229.941 291.018C229.838 290.873 229.753 290.7 229.69 290.511C229.626 290.321 229.587 290.119 229.573 289.914C229.545 289.618 229.569 289.325 229.644 289.067C229.719 288.808 229.842 288.595 229.998 288.451L230.618 286.25C230.741 286.141 232.627 286.177 232.775 286.174L233.405 286.147C233.651 286.149 233.899 286.293 234.1 286.55C234.301 286.808 234.441 287.161 234.493 287.542Z" fill="#0D2035"/>
<path d="M219.878 175.962C218.566 175.279 215.135 170.174 213.504 168.239C211.873 166.305 211.221 150.077 211.359 147.613C211.498 145.149 212.587 143.282 212.991 141.452C213.395 139.621 213.53 137.057 211.012 137.245C209.592 137.245 209.094 138.16 208.394 139.278C207.236 141.452 206.695 142.378 207.417 144.575C208.14 146.771 208.574 147.318 207.692 151.592C206.811 155.866 207.039 163.292 206.906 165.444C206.773 167.596 209.306 174.36 209.728 175.382C210.15 176.403 214.556 179.712 214.556 179.712L219.878 175.962Z" fill="#FFBDC6"/>
<path d="M250.771 198.996C250.308 196.863 246.045 189.162 244.366 188.159L241.261 186.781C241.261 186.781 238.287 189.602 238.78 191.146C239.273 192.689 241.261 194.676 243.848 197.859C246.326 200.907 251.57 209.817 252.937 211.404C253.215 211.726 253.861 212.678 254.227 213.907C254.685 215.444 255.112 219.086 257.189 219.799C259.266 220.511 261.659 222.118 262.295 219.799C262.646 218.601 258.565 214.126 257.189 212.841C255.812 211.555 251.235 201.129 250.771 198.996Z" fill="#FFBDC6"/>
<path d="M243.616 197.518C246.102 200.611 251.363 209.653 252.735 211.263C253.013 211.59 253.661 212.555 254.029 213.803C254.488 215.362 254.916 219.058 257 219.781C259.084 220.504 261.485 222.134 262.122 219.781H259.972C258.802 219.781 257.861 219.362 257 218.646C255.96 217.781 255.721 215.071 254.875 213.167C254.029 211.263 248.609 203.474 247.774 201.957C246.938 200.439 243.429 195.803 242.677 194.792C242.076 193.983 239.662 190.69 238.531 189.145V190.707C239.025 192.273 241.021 194.29 243.616 197.518Z" fill="#E4A7B0"/>
<path d="M242.204 181.352C241.498 180.683 234.216 173.745 233.509 174.51C221.04 191.984 220.025 181.12 226.454 174.51C225.212 175.047 222.536 176.343 221.04 176.232C219.544 176.121 216.954 172.502 216.954 172.502C216.954 172.502 214.953 172.3 213.626 173.373C212.299 174.446 210.986 175.411 211.884 177.365C213.429 178.586 216.494 181.485 217.276 182.472C218.058 183.459 218.172 182.357 217.276 184.79C216.613 186.593 216.297 188.567 217.276 190.756C218.256 192.945 219.027 192.902 219.35 194.834C219.889 198.053 217.605 207.928 216.934 211.124C216.623 215.207 223.463 214.814 226.115 215.932C228.767 217.049 237.27 215.093 237.27 215.093C237.27 215.093 234.49 211.015 235.278 203.89C236.067 196.765 238.407 191.254 238.407 191.254L240.641 193.616L246.976 190.153C246.976 190.153 242.911 182.022 242.204 181.352Z" fill="#12547F"/>
<path d="M212.179 177.803C211.474 177.384 211.591 176.151 211.738 175.586L213.823 178.207C214.144 178.61 216.55 180.625 216.67 180.666C216.79 180.706 218.073 182.52 218.113 182.883C218.145 183.173 217.833 183.004 217.672 182.883L216.068 181.311C215.066 180.316 212.885 178.223 212.179 177.803Z" fill="#0D4062"/>
<path d="M237.28 215.124L236.205 215.351C235.775 213.285 234.762 209.973 234.59 208.734C234.375 207.184 234.522 201.977 234.687 201.477C234.974 200.608 237.425 192.957 238.356 191.294C238.07 191.808 236.407 197.877 235.965 199.539C235.583 200.9 235.326 205.17 235.355 208.404C235.384 211.639 236.671 214.054 237.28 215.124Z" fill="#0D4062"/>
<path d="M232.546 194.295C230.772 194.704 226.77 195.23 224.947 194.058C222.668 192.592 227.029 197.757 232.546 194.295Z" fill="#0D4062"/>
<path d="M240.429 193.783L238.162 191.391L238.288 189.958C239.393 191.206 241.294 193.085 241.446 193.183C240.99 193.444 240.776 193.538 240.429 193.783Z" fill="#0D4062"/>
<path d="M227.789 181.304C228.417 180.802 230.517 178.357 231.467 177.13L231.674 177.399C230.71 178.641 228.5 181.421 227.376 182.606C226.252 183.791 224.979 184.297 224.483 184.402C223.794 184.537 222.384 184.366 222.251 182.606C222.119 180.847 223.326 178.132 223.946 176.995L225.227 175.289C225.227 175.289 226.446 173.675 226.648 174.066C226.85 174.457 225.729 175.239 224.943 176.361C224.147 177.5 223.298 179.524 222.995 180.586C222.857 181.559 222.863 183.342 223.987 183.414C225.392 183.504 227.004 181.933 227.789 181.304Z" fill="#0D4062"/>
<path d="M220.938 243.087C222.591 237.816 225.682 227.472 225.752 227.302C223.909 227.812 220.448 239.279 220.229 240.384C220.01 241.489 219.759 243.547 219.495 245.46C219.285 246.991 220.524 257.63 221.035 262.689L220.27 266.979C220.475 266.979 221.466 266.343 221.677 266.173C221.94 265.96 222.254 263.687 222.43 262.921C222.605 262.156 222.239 261.525 221.888 259.91C221.607 258.617 221.365 253.101 221.277 250.409L220.938 243.087Z" fill="#072D45"/>
<path d="M226.399 163.754C227.609 161.712 229.862 158.91 231.152 156.817L232.063 157.358L231.328 158.597C230.662 161.437 229.292 167.331 229.14 168.187C228.949 169.256 228.585 171.947 228.537 172.608C228.49 173.27 225.543 175.415 224.403 175.428C223.49 175.439 221.228 173.776 220.211 172.943C220.677 168.834 220.136 168.169 222.792 166.098C223.883 165.247 224.976 166.154 226.399 163.754Z" fill="#493545"/>
<path d="M231.762 159.017C230.686 159.473 226.383 166.264 226.593 168.288C226.803 170.312 227.223 172.691 227.677 173.013C228.132 173.334 231.526 173.93 232.425 173.588C233.324 173.246 234.464 173.537 235.889 173.075C237.314 172.613 236.425 174.608 238.481 171.86C240.536 169.112 242.883 169.29 242.015 166.559C241.148 163.828 240.995 161.406 239.758 160.58C238.52 159.755 234.616 158.447 233.188 158.729L231.762 159.017Z" fill="#E4A8B0"/>
<path d="M231.583 157.83C230.507 158.286 226.203 165.077 226.414 167.101C226.624 169.126 227.044 171.504 227.498 171.826C227.952 172.147 231.346 172.743 232.245 172.401C233.145 172.06 234.285 172.35 235.71 171.888C237.135 171.426 236.246 173.421 238.301 170.673C240.356 167.926 242.704 168.103 241.836 165.372C240.968 162.641 240.816 160.219 239.578 159.394C238.341 158.568 234.436 157.26 233.009 157.542L231.583 157.83Z" fill="#FFBDC6"/>
<path d="M228.217 166.387L231.835 167.858C231.835 167.858 230.466 169.971 229.474 169.383C228.482 168.795 227.477 167.635 228.217 166.387Z" fill="white"/>
<path d="M232.806 154.862C231.081 154.694 230.604 154.218 230.581 154C229.989 158.076 232.618 159.025 232.913 159.81C233.208 160.595 235.907 162.196 236.585 163.361C237.263 164.526 236.858 164.439 236.437 166.174C236.017 167.909 236.386 170.876 235.851 171.779C235.315 172.683 233.322 174.249 232.267 174.233C231.212 174.218 229.8 175.06 228.951 176.236C228.102 177.412 227.791 178.448 225.059 180.492C227.242 181.939 231.712 182.605 233.306 182.482C234.899 182.358 238.612 178.148 239.549 176.567C240.487 174.986 243.722 175.683 244.502 173.856C245.281 172.028 245.378 167.506 245.442 166.629C245.507 165.751 247.679 164.139 247.47 162.183C247.261 160.228 245.445 160.983 243.083 159.582C240.721 158.181 240.228 158.5 237.683 156.38C235.139 154.261 234.962 155.072 232.806 154.862Z" fill="#493545"/>
<path d="M216.644 187.982C216.644 186.433 217.179 184.948 217.447 184.399C217.523 184.234 217.66 184.399 217.544 184.641C216.43 188.108 217.806 190.471 218.125 191.13C218.445 191.788 218.445 191.692 218.125 192.282C217.612 191.575 216.644 189.919 216.644 187.982Z" fill="#0D4062"/>
<g filter="url(#filter0_d_2358_19457)">
<rect x="186.535" y="75.8352" width="69.676" height="62.7084" rx="2.82579" fill="white"/>
</g>
<path d="M186.535 78.661C186.535 77.1004 187.8 75.8352 189.361 75.8352H253.385C254.946 75.8352 256.211 77.1004 256.211 78.661V109.601H186.535V78.661Z" fill="#CCEADF"/>
<rect x="191.761" y="114.157" width="59.2246" height="6.9676" fill="#E5E5EA"/>
<rect x="191.761" y="124.608" width="45.2894" height="6.9676" fill="#E5E5EA"/>
<path d="M65.9397 208.64L65.5042 206.931C65.5042 206.931 71.4996 206.179 73.0444 212.523C73.899 216.034 76.4132 226.358 76.4132 226.358L75.4252 226.603L74.4383 226.848C74.4383 226.848 72.0277 216.949 71.0695 213.013C70.0704 208.911 65.9397 208.64 65.9397 208.64Z" fill="#D9E2FB"/>
<path d="M56.9519 208.667C56.9519 209.036 57.2485 209.335 57.6135 209.335H66.0492C66.4142 209.335 66.7108 209.036 66.7108 208.667V207.197C66.7108 206.829 66.4142 206.529 66.0492 206.529H57.6135C57.2485 206.529 56.9519 206.829 56.9519 207.197V208.667Z" fill="#3F4771"/>
<path d="M86.3372 205.309L85.9016 203.6C85.9016 203.6 91.897 202.848 93.4419 209.192C94.2965 212.703 96.8107 223.027 96.8107 223.027L95.8237 223.272L94.8357 223.517C94.8357 223.517 92.4252 213.618 91.467 209.682C90.469 205.58 86.3372 205.309 86.3372 205.309Z" fill="#D9E2FB"/>
<path d="M77.5459 205.337C77.5459 205.705 77.8425 206.005 78.2075 206.005H86.6432C87.0082 206.005 87.3048 205.705 87.3048 205.337V203.867C87.3048 203.498 87.0082 203.199 86.6432 203.199H78.2075C77.8425 203.199 77.5459 203.498 77.5459 203.867V205.337Z" fill="#31518F"/>
<path d="M112.084 233.986H111.297V257.903H112.084V233.986Z" fill="#A7C7EB"/>
<path d="M119.924 235.395L111.822 257.866L112.561 258.138L120.663 235.666L119.924 235.395Z" fill="#A7C7EB"/>
<path d="M127.557 239.7L112.333 258.02L112.935 258.531L128.159 240.211L127.557 239.7Z" fill="#A7C7EB"/>
<path d="M133.276 246.374L112.766 258.332L113.159 259.02L133.669 247.062L133.276 246.374Z" fill="#A7C7EB"/>
<path d="M136.388 254.627L113.064 258.786L113.201 259.567L136.525 255.408L136.388 254.627Z" fill="#A7C7EB"/>
<path d="M113.192 259.306L113.055 260.088L136.379 264.242L136.516 263.46L113.192 259.306Z" fill="#A7C7EB"/>
<path d="M113.134 259.839L112.741 260.527L133.256 272.48L133.649 271.793L113.134 259.839Z" fill="#A7C7EB"/>
<path d="M112.889 260.319L112.287 260.83L127.513 279.147L128.115 278.637L112.889 260.319Z" fill="#A7C7EB"/>
<path d="M112.512 260.687L111.773 260.959L119.883 283.431L120.621 283.159L112.512 260.687Z" fill="#A7C7EB"/>
<path d="M112.025 260.903H111.239V284.819H112.025V260.903Z" fill="#A7C7EB"/>
<path d="M110.757 260.666L102.662 283.142L103.401 283.414L111.496 260.937L110.757 260.666Z" fill="#A7C7EB"/>
<path d="M110.382 260.271L95.1628 278.596L95.7653 279.106L110.985 260.781L110.382 260.271Z" fill="#A7C7EB"/>
<path d="M110.16 259.775L89.6543 271.74L90.0476 272.428L110.553 260.463L110.16 259.775Z" fill="#A7C7EB"/>
<path d="M110.127 259.242L86.8035 263.401L86.9402 264.183L110.264 260.024L110.127 259.242Z" fill="#A7C7EB"/>
<path d="M86.9478 254.568L86.8115 255.35L110.138 259.494L110.274 258.712L86.9478 254.568Z" fill="#A7C7EB"/>
<path d="M90.0721 246.333L89.6792 247.02L110.194 258.971L110.587 258.284L90.0721 246.333Z" fill="#A7C7EB"/>
<path d="M95.8042 239.661L95.2021 240.171L110.433 258.486L111.035 257.976L95.8042 239.661Z" fill="#A7C7EB"/>
<path d="M103.448 235.372L102.709 235.644L110.816 258.116L111.555 257.844L103.448 235.372Z" fill="#A7C7EB"/>
<path d="M85.0164 259.402C85.0164 274.261 96.9454 286.307 111.66 286.307C126.374 286.307 138.302 274.261 138.302 259.402C138.302 244.543 126.374 232.497 111.66 232.497C96.9443 232.498 85.0164 244.543 85.0164 259.402ZM88.7622 259.402C88.7622 246.633 99.0141 236.281 111.659 236.281C124.305 236.281 134.555 246.633 134.555 259.402C134.555 272.172 124.305 282.523 111.659 282.523C99.0141 282.523 88.7622 272.172 88.7622 259.402Z" fill="#3F4771"/>
<path d="M118.322 259.402C118.322 255.687 115.34 252.676 111.661 252.676C107.983 252.676 105 255.687 105 259.402C105 263.117 107.981 266.128 111.661 266.128C115.339 266.129 118.322 263.118 118.322 259.402Z" fill="#A7C7EB"/>
<path d="M89.3232 259.402C89.3232 271.86 99.3237 281.959 111.661 281.959C123.997 281.959 133.998 271.86 133.998 259.402C133.998 246.945 123.998 236.845 111.661 236.845C99.3248 236.846 89.3232 246.945 89.3232 259.402ZM91.6488 259.402C91.6488 248.241 100.608 239.192 111.662 239.192C122.714 239.192 131.674 248.241 131.674 259.402C131.674 270.564 122.714 279.612 111.662 279.612C100.608 279.612 91.6488 270.564 91.6488 259.402Z" fill="#A7C7EB"/>
<path d="M135.578 279.57C135.578 283.292 138.566 286.308 142.251 286.308C145.936 286.308 148.923 283.292 148.923 279.57C148.923 275.849 145.936 272.832 142.251 272.832C138.566 272.832 135.578 275.849 135.578 279.57ZM137.497 279.57C137.497 276.919 139.625 274.77 142.251 274.77C144.876 274.77 147.005 276.919 147.005 279.57C147.005 282.222 144.876 284.371 142.251 284.371C139.625 284.37 137.497 282.221 137.497 279.57Z" fill="#223761"/>
<path d="M144.238 279.57C144.238 278.462 143.348 277.564 142.251 277.564C141.154 277.564 140.264 278.462 140.264 279.57C140.264 280.678 141.154 281.577 142.251 281.577C143.348 281.576 144.238 280.678 144.238 279.57Z" fill="#D9E2FB"/>
<path d="M134.157 247.035L134.127 244.164C134.127 244.164 143.883 245.328 143.883 255.951C143.883 261.831 143.883 279.118 143.883 279.118H142.23H140.576C140.576 279.118 140.576 262.543 140.576 255.951C140.576 249.083 134.157 247.035 134.157 247.035Z" fill="#A7C7EB"/>
<path d="M150.35 276.071H142.885V277.638H150.35V276.071Z" fill="#31518F"/>
<path d="M115.902 281.501H111.492V283.069H115.902V281.501Z" fill="#31518F"/>
<path d="M133.013 277.638H150.35L128.83 283.069H111.492L133.013 277.638Z" fill="#3F4771"/>
<path d="M133.015 276.071H150.353L128.832 281.501H111.495L133.015 276.071Z" fill="#A7C7EB"/>
<path d="M109.111 285C109.111 288.721 112.098 291.738 115.784 291.738C119.469 291.738 122.456 288.721 122.456 285C122.456 281.279 119.469 278.262 115.784 278.262C112.098 278.263 109.111 281.28 109.111 285ZM111.03 285C111.03 282.349 113.158 280.2 115.784 280.2C118.409 280.2 120.537 282.349 120.537 285C120.537 287.651 118.409 289.8 115.784 289.8C113.158 289.8 111.03 287.651 111.03 285Z" fill="#223761"/>
<path d="M117.769 285C117.769 283.892 116.879 282.994 115.782 282.994C114.684 282.994 113.794 283.892 113.794 285C113.794 286.108 114.684 287.007 115.782 287.007C116.88 287.007 117.769 286.108 117.769 285Z" fill="#D9E2FB"/>
<path d="M97.2356 235.029H133.614C133.614 235.029 132.824 231.598 129.075 231.598C125.326 231.598 105.522 231.598 101.375 231.598C97.229 231.598 97.2356 235.029 97.2356 235.029Z" fill="#3F4771"/>
<path d="M79.7662 253.498C79.7662 253.646 79.8886 253.765 80.0408 253.765L114.104 253.932C114.256 253.932 114.379 253.813 114.379 253.665V247.251C114.379 247.104 114.256 246.984 114.104 246.984H78.5631C78.4121 246.984 78.2886 247.104 78.2886 247.251L79.7662 253.498Z" fill="#3F4771"/>
<path d="M81.2427 240.245V248.587H130.494L134.793 247.19V240.245H81.2427Z" fill="#3F4771"/>
<path d="M102.805 242.04L79.5485 247.497L72.95 213.472L94.1494 209.792L102.805 242.04Z" fill="#D9E2FB"/>
<path d="M114.062 246.984V253.93L130.493 248.587L134.793 247.19V240.245L114.062 246.984Z" fill="#3F4771"/>
<path d="M80.8807 246.928C80.9126 247.075 80.8211 247.22 80.6789 247.251L78.6786 247.686C78.5352 247.717 78.3941 247.622 78.3632 247.475L71.2508 214.12C71.2188 213.973 71.3103 213.829 71.4526 213.797L73.4529 213.362C73.5951 213.331 73.7374 213.426 73.7682 213.573L80.8807 246.928Z" fill="#4C80BA"/>
<path d="M111.251 258.169L84.3264 264.012L84.7731 266.111L111.698 260.268L111.251 258.169Z" fill="#679BD6"/>
<path d="M86.7932 187.633C86.78 187.606 86.6653 187.443 86.7238 187.507C87.4152 189.351 87.7735 191.23 87.9808 193.17C88.0955 194.246 88.1165 195.327 88.0647 196.424C88.0415 196.932 87.8728 197.55 88.133 197.971C88.5079 198.576 89.7341 198.807 90.4156 198.876C92.4898 199.089 95.6832 199.107 97.4663 198.055C97.4873 198.079 97.5402 198.071 97.4652 198.097C97.0793 197.296 97.227 196.3 96.9061 195.465C95.0679 195.186 94.8198 192.965 94.6037 191.665C94.296 189.815 94.2872 187.854 94.2596 185.956C93.0125 185.737 91.5922 186.099 90.366 185.585L86.7932 187.633Z" fill="#EC8C9C"/>
<path d="M123.329 274.14C123.329 274.14 122.849 275.69 122.925 276.934C122.999 278.148 123.144 279.533 123.144 279.533C123.144 279.533 125.201 279.525 126.037 279.444C126.873 279.364 135.519 278.642 135.677 278.188C135.835 277.736 135.838 276.754 135.168 276.56C134.497 276.365 130.32 276.112 129.05 275.298C128.238 274.778 127.431 273.821 127.431 273.821L123.329 274.14Z" fill="#223761"/>
<path d="M127.828 273.071C127.828 273.071 127.349 274.621 127.425 275.866C127.499 277.08 127.643 278.465 127.643 278.465C127.643 278.465 129.701 278.456 130.537 278.376C131.372 278.296 140.019 277.573 140.176 277.12C140.334 276.667 140.337 275.686 139.667 275.492C138.996 275.297 134.819 275.043 133.549 274.229C132.738 273.709 131.931 272.752 131.931 272.752L127.828 273.071Z" fill="#223761"/>
<path d="M107.109 229.156C107.109 229.156 108.014 231.152 110.529 231.597C113.043 232.043 123.385 231.894 125.061 232.874C126.737 233.854 130.354 235.101 131.06 238.397C131.766 241.694 132.471 273.365 132.471 273.365C132.471 273.365 131.549 273.641 128.462 273.819C125.374 273.997 122.415 239.287 119.503 237.327C116.592 235.368 97.478 240.264 96.0666 238.571C94.6551 236.879 93.2437 231.266 93.2437 231.266L107.109 229.156Z" fill="#082D44"/>
<path d="M88.4006 232.315C88.4006 232.315 89.0336 240.841 90.445 242.623C91.8565 244.405 94.7677 246.543 97.2377 247.077C99.7078 247.612 114.301 244.812 115.624 245.347C116.947 245.881 118.138 259.474 118.787 261.782C119.351 263.788 122.636 274.588 122.636 274.588L129.013 274.219C129.013 274.219 126.916 244.189 123.74 238.666C120.564 233.142 109.562 232.498 105.111 232.498C103.78 232.498 102.713 229.508 102.713 229.508L88.4006 232.315Z" fill="#0A3A59"/>
<path d="M80.9046 197.684C80.9046 197.684 79.449 203.958 80.5076 209.489C81.5662 215.02 85.2956 226.663 86.6607 229.828C87.9398 232.792 88.5552 234.845 88.5552 234.845C88.5552 234.845 101.018 230.31 103.664 229.828C106.311 229.346 107.109 229.156 107.109 229.156C107.109 229.156 104.061 222.364 103.664 218.27C103.267 214.177 103.135 208.037 103.135 205.027C103.135 202.017 103.4 197.804 101.15 196.84C98.9007 195.877 96.1087 195.172 96.1087 195.172C96.1087 195.172 96.5189 198.164 94.2253 198.164C91.9316 198.164 89.0139 197.156 88.0909 195.172C85.7124 195.598 81.6103 196.882 80.9046 197.684Z" fill="#12547F"/>
<path d="M84.2286 223.028C84.0801 222.287 82.5579 217.205 81.8154 214.756L82.2981 213.755C82.9416 215.671 84.3029 219.594 84.5999 219.95C84.8969 220.306 87.0997 226.033 88.164 228.852L89.9832 233.86L88.5724 234.342C87.1863 230.88 84.3771 223.77 84.2286 223.028Z" fill="#0D4062"/>
<path d="M107.689 252.466L107.659 249.595C107.659 249.595 117.415 250.759 117.415 261.382C117.415 267.261 117.415 284.549 117.415 284.549H115.762H114.108C114.108 284.549 114.108 267.974 114.108 261.382C114.108 254.514 107.689 252.466 107.689 252.466Z" fill="#D9E2FB"/>
<path d="M108.018 237.363H104.822V252.167H108.018V237.363Z" fill="#B8D5F5"/>
<path d="M86.1012 239.387H85.3149V263.305H86.1012V239.387Z" fill="#A7C7EB"/>
<path d="M93.9442 240.796L85.8396 263.268L86.5783 263.54L94.683 241.068L93.9442 240.796Z" fill="#A7C7EB"/>
<path d="M101.575 245.094L86.3533 263.417L86.9556 263.927L102.177 245.605L101.575 245.094Z" fill="#A7C7EB"/>
<path d="M107.293 251.785L86.7805 263.741L87.1736 264.428L107.686 252.473L107.293 251.785Z" fill="#A7C7EB"/>
<path d="M110.401 260.032L87.0774 264.191L87.2141 264.973L110.538 260.814L110.401 260.032Z" fill="#A7C7EB"/>
<path d="M87.2072 264.703L87.0706 265.485L110.394 269.641L110.531 268.86L87.2072 264.703Z" fill="#A7C7EB"/>
<path d="M87.1439 265.24L86.751 265.928L107.264 277.882L107.657 277.194L87.1439 265.24Z" fill="#A7C7EB"/>
<path d="M86.911 265.724L86.3088 266.234L101.538 284.552L102.14 284.041L86.911 265.724Z" fill="#A7C7EB"/>
<path d="M86.52 266.09L85.7812 266.361L93.8859 288.833L94.6246 288.562L86.52 266.09Z" fill="#A7C7EB"/>
<path d="M86.0406 266.305H85.2544V290.221H86.0406V266.305Z" fill="#A7C7EB"/>
<path d="M84.7744 266.068L76.6792 288.544L77.4181 288.816L85.5133 266.339L84.7744 266.068Z" fill="#A7C7EB"/>
<path d="M84.3977 265.673L69.1785 283.998L69.7809 284.508L85.0001 266.183L84.3977 265.673Z" fill="#A7C7EB"/>
<path d="M84.1749 265.177L63.6694 277.143L64.0628 277.83L84.5683 265.865L84.1749 265.177Z" fill="#A7C7EB"/>
<path d="M84.1449 264.643L60.821 268.803L60.9578 269.584L84.2817 265.425L84.1449 264.643Z" fill="#A7C7EB"/>
<path d="M60.9639 259.972L60.8276 260.754L84.1539 264.899L84.2902 264.117L60.9639 259.972Z" fill="#A7C7EB"/>
<path d="M64.0927 251.731L63.6997 252.419L84.2147 264.373L84.6077 263.685L64.0927 251.731Z" fill="#A7C7EB"/>
<path d="M69.8226 245.063L69.2205 245.573L84.4515 263.889L85.0536 263.378L69.8226 245.063Z" fill="#A7C7EB"/>
<path d="M77.4658 240.773L76.7271 241.045L84.834 263.517L85.5728 263.245L77.4658 240.773Z" fill="#A7C7EB"/>
<path d="M59.0349 264.804C59.0349 279.663 70.964 291.709 85.6785 291.709C100.393 291.709 112.321 279.663 112.321 264.804C112.321 249.945 100.393 237.899 85.6785 237.899C70.9629 237.899 59.0349 249.945 59.0349 264.804ZM62.7819 264.804C62.7819 252.035 73.0337 241.683 85.6785 241.683C98.3243 241.683 108.575 252.034 108.575 264.804C108.575 277.574 98.3243 287.926 85.6785 287.926C73.0326 287.926 62.7819 277.574 62.7819 264.804Z" fill="#3F4771"/>
<path d="M92.3384 264.804C92.3384 261.089 89.3567 258.078 85.678 258.078C81.9994 258.078 79.0166 261.089 79.0166 264.804C79.0166 268.519 81.9983 271.53 85.678 271.53C89.3567 271.531 92.3384 268.519 92.3384 264.804Z" fill="#A7C7EB"/>
<path d="M63.3403 264.804C63.3403 277.262 73.3408 287.361 85.6778 287.361C98.0138 287.361 108.014 277.262 108.014 264.804C108.014 252.347 98.0138 242.247 85.6778 242.247C73.3408 242.247 63.3403 252.347 63.3403 264.804ZM65.6648 264.804C65.6648 253.643 74.6243 244.595 85.6778 244.595C96.7302 244.595 105.69 253.643 105.69 264.804C105.69 275.966 96.7302 285.014 85.6778 285.014C74.6243 285.014 65.6648 275.966 65.6648 264.804Z" fill="#A7C7EB"/>
<path d="M74.1489 237.675H110.527C110.527 237.675 109.738 233.048 105.988 233.048C102.239 233.048 82.4358 233.048 78.2896 233.048C74.1423 233.049 74.1489 237.675 74.1489 237.675Z" fill="#3F4771"/>
<path d="M83.1493 234.146C83.7536 234.144 84.1009 235.531 84.3413 236.018C84.6424 236.627 84.9335 237.252 85.3558 237.762C86.2655 238.86 88.4643 241.003 88.7146 242.455C88.1203 242.611 86.6305 242.068 86.1023 242.103C85.3812 242.151 85.0504 242.6 85.0459 243.186C85.0382 244.254 85.1959 244.869 85.175 245.978C84.3722 246.118 82.942 245.138 82.3179 244.717C81.4699 244.143 80.5226 244.147 79.8809 243.34C79.2204 242.512 79.0836 241.191 79.7816 240.247C80.3716 239.45 80.8259 238.588 80.8127 237.528C80.8016 236.646 80.3881 236.346 79.8324 235.752C79.3549 235.24 79.1299 234.638 78.7859 234.091C79.3042 233.618 80.4697 233.424 81.1181 233.168C81.6485 232.959 82.1458 232.694 82.6641 232.5L83.1493 234.146Z" fill="#EC8C9C"/>
<path d="M85.912 208.666C86.181 208.08 86.7037 203.373 85.2856 201.235C83.8665 199.098 82.101 197.227 80.9994 197.628C79.8978 198.029 70.0319 218.822 69.4442 220.939C68.8553 223.057 70.4322 225.806 72.4347 228.077C74.4372 230.349 80.1779 237.425 80.1779 237.425C80.1779 237.425 80.8142 237.192 81.8728 236.657C82.9314 236.123 83.8246 235.054 83.8246 235.054C83.8246 235.054 80.1206 227.733 79.459 226.664C78.7973 225.595 77.5303 222.66 77.634 221.814C77.7354 220.967 84.914 210.84 85.912 208.666Z" fill="#12547F"/>
<path d="M108.511 196.17C111.501 195.958 113.208 195.957 114.662 194.932C115.038 194.745 115.677 193.918 115.226 192.115C114.775 190.311 113.91 183.85 113.534 180.844L115.79 179.153L120.866 194.369C121.317 195.46 121.913 197.796 120.696 198.412C118.79 199.662 114.298 201.445 108.752 202.807L108.75 202.807C104.731 203.794 104.671 204.444 103.605 204.376C96.6207 203.937 97.5438 197.738 100.359 196.597C100.359 196.597 102.677 196.583 108.511 196.17Z" fill="#12547F"/>
<path d="M81.5941 181.789C81.7072 181.255 81.8425 180.77 81.994 180.324C81.6409 180.479 81.2404 180.608 80.8652 180.611C79.8762 180.618 78.3757 178.121 78.1719 177.279C77.9687 176.437 78.1858 173.667 79.5373 172.833C80.8894 172 83.0517 172.968 83.0517 172.968C82.3023 171.93 79.577 172.291 79.577 172.291C85.0053 171.103 86.1466 174.544 86.2399 174.866C90.1731 171.305 96.4931 178.789 96.4931 178.789L87.4646 190.776C87.4646 190.776 86.6362 188.885 85.5454 189.486C83.8487 190.423 80.552 186.711 81.5941 181.789Z" fill="black"/>
<path d="M87.6279 190.479C88.5095 192.216 92.8252 194.752 95.7635 194.913C95.5884 193.921 94.3798 192.888 94.6549 191.035L87.6279 190.479Z" fill="#C57884"/>
<path d="M95.0998 192.581C95.0998 192.581 87.0251 192.773 87.0099 187.775C86.9947 182.777 85.9427 179.436 91.0971 179.102C96.2515 178.767 97.2603 180.666 97.6736 182.331C98.0862 183.995 97.1996 192.401 95.0998 192.581Z" fill="#EC8C9C"/>
<path d="M93.9247 188.763L96.3008 188.234C96.3008 188.234 96.2444 190.534 95.5315 190.534C94.8187 190.534 93.9247 190.087 93.9247 188.763Z" fill="white"/>
<path d="M89.1867 185.722C85.7957 186.614 84.3223 185.722 84.3223 185.722C84.3223 185.722 86.9206 183.647 87.4536 180.057C87.4536 180.057 90.5498 177.346 94.0626 178.242C94.3133 178.384 94.5331 178.58 94.7125 178.846C95.2412 178.392 96.1825 178.058 97.432 179.551C99.309 181.791 97.651 185.79 97.651 185.79C96.882 185.885 96.6969 183.267 96.2919 181.997C95.9941 181.063 95.0206 180.114 94.5266 179.677C94.3708 180.255 92.7547 185.88 88.6986 187.775C88.6986 187.775 90.5638 186.114 91.9335 183.817C91.1452 184.711 90.2216 185.449 89.1867 185.722Z" fill="black"/>
<path d="M82.8921 213.273L81.8897 215.016C80.8873 216.549 78.786 219.779 78.3999 220.432C78.0137 221.085 77.645 221.866 77.5088 222.175C77.2985 221.829 76.9371 220.996 77.1747 220.432C77.4123 219.868 80.417 215.078 81.8897 212.753L82.8921 213.273Z" fill="#0D4062"/>
<path d="M108.733 202.875C104.713 203.861 103.115 204.994 102.049 204.926C99.0737 204.072 110.349 200.847 112.243 200.661C114.136 200.476 117.849 198.479 119.519 197.805C120.697 197.33 120.993 195.186 120.667 193.948L120.501 193.501C120.567 193.629 120.623 193.78 120.667 193.948L120.849 194.436C121.299 195.527 121.896 197.863 120.678 198.479C118.773 199.729 114.281 201.513 108.734 202.874L108.733 202.875Z" fill="#0D4062"/>
<path d="M113.781 183.04C113.721 182.922 113.533 181.458 113.447 180.741H113.966C114.115 182.051 114.427 184.777 114.486 185.192C114.56 185.711 115.488 190.756 115.6 191.461C115.711 192.166 115.86 193.501 115.897 193.983C115.927 194.369 115.414 194.837 115.154 195.022C115.055 194.973 114.917 194.792 115.154 194.466C115.451 194.058 115.34 192.908 115.154 191.795C114.969 190.682 113.855 183.189 113.781 183.04Z" fill="#0D4062"/>
<path d="M113.43 181.264C113.43 181.264 111.411 176.628 111.839 175.31C112.265 173.992 114.857 169.654 115.402 169.87C115.944 170.088 117.369 173.916 116.992 175.431C116.664 176.751 116.932 178.881 117.006 179.407C117.011 179.438 117.016 179.469 117.021 179.503C117.025 179.516 117.025 179.525 117.025 179.525C117.341 180.784 117.064 182.894 113.43 181.264Z" fill="#EC8C9C"/>
<path d="M90.9893 212.934C92.5851 213.049 96.1326 212.963 97.5567 211.699C99.3367 210.119 96.2501 215.191 90.9893 212.934Z" fill="#0D4062"/>
<g filter="url(#filter1_d_2358_19457)">
<rect x="108.11" y="110" width="69.676" height="62.7084" rx="2.82579" fill="white"/>
</g>
<path d="M108.11 112.826C108.11 111.265 109.375 110 110.936 110H174.961C176.521 110 177.786 111.265 177.786 112.826V143.766H108.11V112.826Z" fill="#C3EAF6"/>
<rect x="113.337" y="148.322" width="59.2246" height="6.9676" fill="#E5E5EA"/>
<rect x="113.337" y="158.773" width="45.2894" height="6.9676" fill="#E5E5EA"/>
<g filter="url(#filter2_d_2358_19457)">
<rect x="108.11" y="38.9297" width="69.676" height="62.7084" rx="2.82579" fill="white"/>
</g>
<path d="M108.11 41.7554C108.11 40.1948 109.375 38.9297 110.936 38.9297H174.961C176.521 38.9297 177.786 40.1948 177.786 41.7554V72.6957H108.11V41.7554Z" fill="#EACBD6"/>
<rect x="113.337" y="77.2515" width="59.2246" height="6.9676" fill="#E5E5EA"/>
<rect x="113.337" y="87.703" width="45.2894" height="6.9676" fill="#E5E5EA"/>
<g filter="url(#filter3_d_2358_19457)">
<rect x="186.665" y="6.06097" width="69.676" height="62.7084" rx="2.82579" fill="white"/>
</g>
<path d="M186.665 8.88676C186.665 7.32612 187.93 6.06097 189.491 6.06097H253.515C255.076 6.06097 256.341 7.32612 256.341 8.88676V39.827H186.665V8.88676Z" fill="#F2F6C3"/>
<rect x="191.893" y="44.3828" width="59.2246" height="6.9676" fill="#E5E5EA"/>
<rect x="191.893" y="54.8343" width="45.2894" height="6.9676" fill="#E5E5EA"/>
<g filter="url(#filter4_d_2358_19457)">
<rect x="265.221" y="19.996" width="69.676" height="62.7084" rx="2.82579" fill="white"/>
</g>
<path d="M265.221 22.8218C265.221 21.2612 266.486 19.996 268.046 19.996H332.071C333.632 19.996 334.897 21.2612 334.897 22.8218V53.7621H265.221V22.8218Z" fill="#D9C3F6"/>
<rect x="270.447" y="58.3179" width="59.2246" height="6.9676" fill="#E5E5EA"/>
<rect x="270.447" y="68.7694" width="45.2894" height="6.9676" fill="#E5E5EA"/>
<path d="M321.997 160.905C321.997 160.905 317.731 155.924 318.299 154.61C318.867 153.297 318.854 148.66 321.598 149.581C324.341 150.502 324.114 153.749 324.518 155.255C324.921 156.761 325.673 160.749 325.673 160.749L321.997 160.905Z" fill="#8E5243"/>
<path d="M345.67 287.338C345.143 286.07 344.659 285.929 344.483 286.017C343.187 285.753 340.461 285.238 339.934 285.29C339.274 285.356 338.747 285.555 336.439 286.479C334.131 287.404 333.01 287.338 331.691 287.338C330.373 287.338 329.845 288.196 329.45 289.451C329.133 290.455 329.977 290.926 330.439 291.036C332.615 291.169 337.401 291.036 339.274 291.036C342.239 291.036 344.483 291.301 345.275 291.036C346.066 290.772 346.33 288.923 345.67 287.338Z" fill="black"/>
<path d="M365.53 287.338C365.002 286.07 364.519 285.929 364.343 286.017C363.046 285.753 360.321 285.238 359.793 285.29C359.134 285.356 358.606 285.555 356.298 286.479C353.991 287.404 352.87 287.338 351.551 287.338C350.232 287.338 349.705 288.196 349.309 289.451C348.992 290.455 349.836 290.926 350.298 291.036C352.474 291.169 357.26 291.036 359.134 291.036C362.099 291.036 364.343 291.301 365.134 291.036C365.925 290.772 366.189 288.923 365.53 287.338Z" fill="black"/>
<path d="M351.045 180.843C350.92 181.305 351.045 188.84 351.045 188.84C351.045 188.84 359.107 191.643 359.107 191.384C359.107 190.138 359.161 188.697 359.107 188.077C359.052 187.457 359.107 180.843 359.107 180.843L351.045 180.843Z" fill="#8E5243"/>
<path d="M337.613 223C337.326 224.272 334.729 235.436 334.174 251.257C333.668 265.656 337.732 284.773 338.587 287.077C338.587 287.077 340.489 287.869 342.467 287.565C344.446 287.262 345.13 286.35 345.13 286.35C345.13 286.35 342.543 268.272 344.522 258.093C346.5 247.915 348.189 238.028 348.189 238.028L359.625 286.35C359.625 286.35 360.949 287.197 362.209 287.219C363.545 287.241 364.814 286.426 364.53 285.965C363.978 285.07 359.484 220.563 359.484 220.563C359.484 220.563 338.16 220.569 337.613 223Z" fill="#0A3A59"/>
<path d="M337.255 224.671L337.712 222.354C340.616 223.431 346.713 225.476 346.957 225.507C347.2 225.537 355.834 225.773 360.12 225.887L359.359 229.001C358.674 229.216 357.084 229.692 356.202 229.874C355.098 230.102 352.169 230.216 349.011 230.368C345.853 230.52 342.201 228.203 340.755 227.748C339.599 227.383 337.953 225.57 337.255 224.671Z" fill="#082D44"/>
<path d="M344.508 258.093C342.529 268.272 345.116 286.35 345.116 286.35L343.251 286.958V286.35C342.972 281.615 342.399 271.66 342.338 269.715C342.262 267.284 343.099 260.296 343.251 259.005C343.403 257.713 343.86 254.447 343.936 254.067C344.012 253.688 345.762 244.648 345.838 243.205C345.899 242.051 347.421 239.273 348.175 238.028C348.175 238.028 346.486 247.915 344.508 258.093Z" fill="#082D44"/>
<path d="M359.487 221.331C359.487 221.331 363.981 285.838 364.533 286.733H363.28C362.925 283.241 362.093 275.314 361.606 271.547C360.997 266.837 358.638 223.844 358.41 222.553C358.228 221.52 359.052 221.308 359.487 221.331Z" fill="#082D44"/>
<path d="M339.943 182.213C342.713 182.863 349.938 184.286 350.648 184.413C351.858 184.63 349.805 186.866 353.392 187.579C356.978 188.292 358.18 185.945 359.17 184.413C360.785 184.57 363.78 184.641 368.81 187.579C373.84 190.516 379.381 198.673 382.613 203.507C384.241 206.745 381.717 210.131 381.717 210.131L366.288 223.895C366.288 223.895 364.077 223.646 363.355 222.013C362.632 220.379 363.164 219.62 363.78 218.879C369.974 214.227 374.806 208.796 375.253 207.041C375.701 205.287 370.234 201.337 370.234 201.337C370.234 201.337 367.007 198.116 365.214 200.442C364.1 201.894 359.558 204.104 361.176 214.227C361.795 219.243 361.866 223.217 361.795 223.895C361.617 225.685 361.075 226.221 360.544 226.58C360.012 226.939 349.534 233.768 337.243 223C341.211 201.06 339.943 195.431 339.943 195.431C339.46 193.965 325.591 182.236 325.46 180.697L320.697 159.403H325.46L331.442 176.531C331.442 176.531 337.173 181.563 339.943 182.213Z" fill="#12547F"/>
<path d="M357.305 186.806C357.64 186.623 358.713 185.134 359.207 184.413C359.207 184.653 359.146 185.271 358.903 185.818C358.599 186.502 358.446 186.578 357.609 187.337C356.772 188.097 356.316 188.097 355.631 188.363C354.946 188.629 353.995 188.629 353.044 188.629C352.093 188.629 351.104 187.261 350.913 186.882C350.723 186.502 350.571 184.413 350.685 184.413C350.799 184.413 351.104 184.527 351.104 185.362C351.104 186.198 351.56 186.806 351.674 186.882C351.789 186.958 352.549 187.489 354.147 187.679C355.745 187.869 356.887 187.033 357.305 186.806Z" fill="#0D3D5B"/>
<path d="M350.989 183.767V181.261L355.821 181.033C357.254 180.476 359.952 179.741 359.283 181.261C358.446 183.16 354.261 184.071 353.424 184.261C352.754 184.413 351.522 183.995 350.989 183.767Z" fill="#713B2E"/>
<path d="M350.662 165.536C350.662 165.536 347.769 171.903 348.316 174.861C348.863 177.82 349.989 182.491 351.696 182.567C353.403 182.643 358.589 182.87 359.749 180.939C360.909 179.007 363.082 177.399 363.391 175.139C363.7 172.878 363.315 168.1 362.464 167.094C361.613 166.088 361.223 165.471 359.055 165.157C356.887 164.844 350.662 165.536 350.662 165.536Z" fill="#8E5243"/>
<path d="M360.3 179.457C360.717 177.748 362.212 173.955 361.822 173.798C361.432 173.641 360.292 173.743 360.525 171.579C360.758 169.415 360.059 169.025 359.056 169.182C358.053 169.339 354.708 170.494 352.932 169.152C352.082 168.253 351.326 168.565 350.637 169.182C349.948 169.799 349.238 170.325 348.62 171.579C346.857 166.212 348.542 162.694 351.55 163.088C354.557 163.482 358.818 161.594 361.251 163.43C363.685 165.265 363.23 166.924 365.322 168.063C367.415 169.203 365.973 172.483 365.664 173.798C364.143 177.406 359.883 181.166 360.3 179.457Z" fill="#2F2F2F"/>
<path d="M354.816 177.438L350.612 176.811C350.612 176.811 350.718 179.537 351.979 179.537C353.24 179.537 354.816 179.016 354.816 177.438Z" fill="white"/>
<path d="M361.609 220.324C361.908 219.128 363.049 220.324 363.049 220.324C363.049 221.369 363.848 222.62 364.266 223.076C364.601 223.441 365.471 223.76 365.864 223.874C364.831 224.704 361.17 228.732 358.864 228.013C356.558 227.295 361.31 221.519 361.609 220.324Z" fill="#8E5243"/>
<path d="M368.985 200.326C368.452 199.946 367.159 199.415 366.36 199.567C366.36 199.149 366.9 198.913 367.691 198.883C368.681 198.845 373.931 202.947 374.692 203.934C375.453 204.922 376.099 206.403 375.3 207.352C375.453 206.669 375.11 206.251 374.806 205.605C374.501 204.96 373.208 203.934 372.371 202.985C371.61 202.453 369.518 200.706 368.985 200.326Z" fill="#0D3D5B"/>
<path d="M339.861 195.207C338.756 193.204 325.526 182.526 325.465 180.698C329.565 184.238 337.163 189.351 340.363 193.37C340.363 193.37 340.51 195.935 339.861 195.207Z" fill="#0D3D5B"/>
<g filter="url(#filter5_d_2358_19457)">
<rect x="265.09" y="90.7283" width="69.676" height="62.7084" rx="2.82579" fill="white"/>
</g>
<path d="M265.09 93.5541C265.09 91.9935 266.355 90.7283 267.916 90.7283H331.94C333.501 90.7283 334.766 91.9935 334.766 93.5541V124.494H265.09V93.5541Z" fill="#F6E2C3"/>
<rect x="270.317" y="129.05" width="59.2246" height="6.9676" fill="#E5E5EA"/>
<rect x="270.317" y="139.502" width="45.2894" height="6.9676" fill="#E5E5EA"/>
</g>
<defs>
<filter id="filter0_d_2358_19457" x="182.01" y="72.7553" width="78.7267" height="71.7591" filterUnits="userSpaceOnUse" color-interpolation-filters="sRGB">
<feFlood flood-opacity="0" result="BackgroundImageFix"/>
<feColorMatrix in="SourceAlpha" type="matrix" values="0 0 0 0 0 0 0 0 0 0 0 0 0 0 0 0 0 0 127 0" result="hardAlpha"/>
<feOffset dy="1.44545"/>
<feGaussianBlur stdDeviation="2.26268"/>
<feComposite in2="hardAlpha" operator="out"/>
<feColorMatrix type="matrix" values="0 0 0 0 0 0 0 0 0 0 0 0 0 0 0 0 0 0 0.16 0"/>
<feBlend mode="normal" in2="BackgroundImageFix" result="effect1_dropShadow_2358_19457"/>
<feBlend mode="normal" in="SourceGraphic" in2="effect1_dropShadow_2358_19457" result="shape"/>
</filter>
<filter id="filter1_d_2358_19457" x="103.585" y="106.92" width="78.7267" height="71.7591" filterUnits="userSpaceOnUse" color-interpolation-filters="sRGB">
<feFlood flood-opacity="0" result="BackgroundImageFix"/>
<feColorMatrix in="SourceAlpha" type="matrix" values="0 0 0 0 0 0 0 0 0 0 0 0 0 0 0 0 0 0 127 0" result="hardAlpha"/>
<feOffset dy="1.44545"/>
<feGaussianBlur stdDeviation="2.26268"/>
<feComposite in2="hardAlpha" operator="out"/>
<feColorMatrix type="matrix" values="0 0 0 0 0 0 0 0 0 0 0 0 0 0 0 0 0 0 0.16 0"/>
<feBlend mode="normal" in2="BackgroundImageFix" result="effect1_dropShadow_2358_19457"/>
<feBlend mode="normal" in="SourceGraphic" in2="effect1_dropShadow_2358_19457" result="shape"/>
</filter>
<filter id="filter2_d_2358_19457" x="103.585" y="35.8498" width="78.7267" height="71.7591" filterUnits="userSpaceOnUse" color-interpolation-filters="sRGB">
<feFlood flood-opacity="0" result="BackgroundImageFix"/>
<feColorMatrix in="SourceAlpha" type="matrix" values="0 0 0 0 0 0 0 0 0 0 0 0 0 0 0 0 0 0 127 0" result="hardAlpha"/>
<feOffset dy="1.44545"/>
<feGaussianBlur stdDeviation="2.26268"/>
<feComposite in2="hardAlpha" operator="out"/>
<feColorMatrix type="matrix" values="0 0 0 0 0 0 0 0 0 0 0 0 0 0 0 0 0 0 0.16 0"/>
<feBlend mode="normal" in2="BackgroundImageFix" result="effect1_dropShadow_2358_19457"/>
<feBlend mode="normal" in="SourceGraphic" in2="effect1_dropShadow_2358_19457" result="shape"/>
</filter>
<filter id="filter3_d_2358_19457" x="182.14" y="2.98107" width="78.7267" height="71.7591" filterUnits="userSpaceOnUse" color-interpolation-filters="sRGB">
<feFlood flood-opacity="0" result="BackgroundImageFix"/>
<feColorMatrix in="SourceAlpha" type="matrix" values="0 0 0 0 0 0 0 0 0 0 0 0 0 0 0 0 0 0 127 0" result="hardAlpha"/>
<feOffset dy="1.44545"/>
<feGaussianBlur stdDeviation="2.26268"/>
<feComposite in2="hardAlpha" operator="out"/>
<feColorMatrix type="matrix" values="0 0 0 0 0 0 0 0 0 0 0 0 0 0 0 0 0 0 0.16 0"/>
<feBlend mode="normal" in2="BackgroundImageFix" result="effect1_dropShadow_2358_19457"/>
<feBlend mode="normal" in="SourceGraphic" in2="effect1_dropShadow_2358_19457" result="shape"/>
</filter>
<filter id="filter4_d_2358_19457" x="260.695" y="16.9161" width="78.7267" height="71.7591" filterUnits="userSpaceOnUse" color-interpolation-filters="sRGB">
<feFlood flood-opacity="0" result="BackgroundImageFix"/>
<feColorMatrix in="SourceAlpha" type="matrix" values="0 0 0 0 0 0 0 0 0 0 0 0 0 0 0 0 0 0 127 0" result="hardAlpha"/>
<feOffset dy="1.44545"/>
<feGaussianBlur stdDeviation="2.26268"/>
<feComposite in2="hardAlpha" operator="out"/>
<feColorMatrix type="matrix" values="0 0 0 0 0 0 0 0 0 0 0 0 0 0 0 0 0 0 0.16 0"/>
<feBlend mode="normal" in2="BackgroundImageFix" result="effect1_dropShadow_2358_19457"/>
<feBlend mode="normal" in="SourceGraphic" in2="effect1_dropShadow_2358_19457" result="shape"/>
</filter>
<filter id="filter5_d_2358_19457" x="260.564" y="87.6484" width="78.7267" height="71.7591" filterUnits="userSpaceOnUse" color-interpolation-filters="sRGB">
<feFlood flood-opacity="0" result="BackgroundImageFix"/>
<feColorMatrix in="SourceAlpha" type="matrix" values="0 0 0 0 0 0 0 0 0 0 0 0 0 0 0 0 0 0 127 0" result="hardAlpha"/>
<feOffset dy="1.44545"/>
<feGaussianBlur stdDeviation="2.26268"/>
<feComposite in2="hardAlpha" operator="out"/>
<feColorMatrix type="matrix" values="0 0 0 0 0 0 0 0 0 0 0 0 0 0 0 0 0 0 0.16 0"/>
<feBlend mode="normal" in2="BackgroundImageFix" result="effect1_dropShadow_2358_19457"/>
<feBlend mode="normal" in="SourceGraphic" in2="effect1_dropShadow_2358_19457" result="shape"/>
</filter>
<clipPath id="clip0_2358_19457">
<rect width="450" height="300" fill="white" transform="translate(0 0.527344)"/>
</clipPath>
</defs>
</svg>
