<svg width="233" height="151" viewBox="0 0 233 151" fill="none" xmlns="http://www.w3.org/2000/svg">
<path d="M130.017 15.6626C149.567 14.2495 172.454 9.11236 191.037 15.4224C209.621 21.7323 223.971 39.6071 228.073 63.2359C232.244 86.9822 226.313 116.396 206.652 129.315C186.844 142.321 153.159 138.92 129.546 134.477C106.002 130.152 92.1679 124.842 69.9484 122.752C47.5823 120.749 16.5452 121.817 6.54342 109.946C-3.60484 98.1618 7.28944 73.1169 22.7343 54.751C38.1095 36.2674 58.1121 24.2582 76.2207 19.4092C94.3989 14.6777 110.467 17.0756 130.017 15.6626Z" fill="#11B4EA"/>
<g filter="url(#filter0_d_1218_35971)">
<rect x="104.025" y="91.6978" width="50.4277" height="45.6479" rx="2.49774" fill="white"/>
</g>
<path d="M104.025 94.1955C104.025 92.816 105.143 91.6978 106.523 91.6978H151.955C153.335 91.6978 154.453 92.816 154.453 94.1955V116.277H104.025V94.1955Z" fill="#FBD4B1"/>
<g filter="url(#filter1_d_1218_35971)">
<rect x="43.3115" y="59.8328" width="50.3181" height="44.9863" rx="2.49774" fill="white"/>
</g>
<path d="M43.3115 62.3305C43.3115 60.951 44.4298 59.8328 45.8093 59.8328H91.1319C92.5113 59.8328 93.6296 60.951 93.6296 62.3305V83.2631H43.3115V62.3305Z" fill="#C4FBB1"/>
<g filter="url(#filter2_d_1218_35971)">
<rect x="164.539" y="75.7651" width="50.4277" height="45.6479" rx="2.49774" fill="white"/>
</g>
<path d="M164.539 78.2629C164.539 76.8834 165.658 75.7651 167.037 75.7651H212.469C213.849 75.7651 214.967 76.8834 214.967 78.2629V100.345H164.539V78.2629Z" fill="#E7CBFD"/>
<rect x="47.2944" y="87.0117" width="42.8636" height="5.07198" fill="#E5E5EA"/>
<rect x="47.2944" y="94.6199" width="32.778" height="5.07199" fill="#E5E5EA"/>
<rect x="107.808" y="119.594" width="42.8636" height="5.07198" fill="#E5E5EA"/>
<rect x="107.808" y="127.202" width="32.778" height="5.07198" fill="#E5E5EA"/>
<rect x="168.322" y="103.661" width="42.8636" height="5.07198" fill="#E5E5EA"/>
<rect x="168.322" y="111.269" width="32.778" height="5.07198" fill="#E5E5EA"/>
<g filter="url(#filter3_d_1218_35971)">
<rect x="103.896" y="41.0881" width="50.4277" height="45.6479" rx="2.49774" fill="white"/>
</g>
<path d="M103.896 43.5859C103.896 42.2064 105.014 41.0881 106.393 41.0881H151.826C153.205 41.0881 154.323 42.2064 154.323 43.5859V65.6678H103.896V43.5859Z" fill="#FFB0E4"/>
<rect x="107.678" y="68.9841" width="42.8636" height="5.07198" fill="#E5E5EA"/>
<rect x="107.678" y="76.592" width="32.778" height="5.07199" fill="#E5E5EA"/>
<path d="M137.448 56.5019L136.762 58.5759L138.069 60.322L135.899 60.3049L134.655 62.0966L134 60.0117L131.924 59.3735L133.69 58.1023L133.651 55.9165L135.397 57.2151L137.448 56.5019Z" fill="#D76EB3"/>
<path d="M120.408 44.5864C119.31 44.8392 118.318 45.4196 117.568 46.2482C116.818 47.0767 116.348 48.1128 116.221 49.2144C116.221 51.0332 117.896 53.0026 119.885 52.8139C120.615 52.8091 121.333 52.6236 121.971 52.2745C122.572 51.9264 123.075 51.4373 123.436 50.8511C123.876 50.0305 124.094 49.113 124.071 48.186C124.063 47.234 123.674 46.3233 122.989 45.6501C122.304 44.9768 121.377 44.5949 120.408 44.5864Z" fill="#D76EB3"/>
<path d="M116.471 53.8946C116.305 53.5909 116.032 53.3611 115.707 53.2516C115.383 53.1421 115.03 53.1612 114.721 53.305C113.839 53.6774 113.223 54.6756 112.847 55.588C112.365 54.8432 111.648 54.1772 110.798 53.9618C109.903 53.7362 109.313 54.3606 109.205 55.2398C109.064 56.3805 109.763 57.4615 110.48 58.2802C111.436 59.3689 114.024 61.6503 114.128 61.506C114.987 60.3283 115.658 59.0209 116.117 57.6305C116.461 56.5751 117.063 54.9565 116.471 53.8946ZM114.052 60.8462C112.58 59.8588 110.924 58.6028 110.08 56.9997C109.709 56.2966 109.481 55.3813 109.872 54.6393C110.303 53.8206 111.311 54.4832 111.79 54.9276C112.153 55.2741 112.45 55.6855 112.665 56.1405C112.725 56.2633 113.079 56.3169 113.131 56.162C113.393 55.3831 113.884 54.2055 114.634 53.7825C115.044 53.5519 115.836 53.5603 116.06 54.0461C116.154 54.2743 116.205 54.5183 116.209 54.7649C116.203 55.2367 116.141 55.7055 116.022 56.1606C115.66 57.8356 114.992 59.4245 114.052 60.8462Z" fill="#D76EB3"/>
<path d="M141.36 48.582L142.007 48.4238L143.432 54.3194L142.785 54.4777L141.36 48.582Z" fill="#D76EB3"/>
<path d="M145.426 46.3916L146.073 46.2334L147.591 52.5118L146.944 52.6701L145.426 46.3916Z" fill="#D76EB3"/>
<path d="M141.274 48.228L146.022 46.0228L146.527 48.1092L141.779 50.3144L141.274 48.228Z" fill="#D76EB3"/>
<ellipse rx="1.57867" ry="1.18048" transform="matrix(0.883007 -0.46936 0.46514 0.885237 141.979 54.9161)" fill="#D76EB3"/>
<ellipse rx="1.57867" ry="1.18048" transform="matrix(0.883007 -0.46936 0.46514 0.885237 146.12 53.0318)" fill="#D76EB3"/>
<path d="M121.773 61.0123C122.731 59.748 123.267 58.3469 123.803 56.8774C124.174 55.8599 124.613 54.8887 125.47 54.1656C125.743 53.938 126.069 53.7753 126.425 53.6902C126.426 53.6823 126.426 53.674 126.427 53.6659C126.698 51.3157 129.066 48.3043 131.781 48.5142C133.529 46.4255 137.343 45.5303 138.008 49.0362C138.06 49.3086 137.623 49.3956 137.571 49.1225C137.006 46.1453 134.017 46.8363 132.335 48.6026C132.567 48.6583 132.794 48.7359 133.012 48.8342C134.939 49.7065 134.522 52.6714 132.744 53.3423C131.91 53.6569 131.289 52.9597 130.986 52.2873C130.449 51.0971 130.787 49.9006 131.477 48.9105C129.276 48.944 127.155 51.383 126.87 53.6199C127.398 53.5771 127.934 53.6882 128.407 53.9384C128.88 54.1887 129.267 54.5663 129.517 55.0212C129.913 55.7879 129.699 57.3379 128.477 57.068C127.065 56.756 126.435 55.4317 126.403 54.1932C126.178 54.259 125.968 54.3586 125.779 54.4882C124.751 55.2128 124.384 56.5963 123.989 57.6921C123.566 58.9635 122.949 60.1625 122.156 61.2518C121.992 61.4706 121.607 61.2324 121.773 61.0123ZM131.276 51.8008C131.657 53.1447 132.705 53.2622 133.423 52.176C134.081 51.1807 134.005 49.7462 132.735 49.1713C132.51 49.0699 132.274 48.9973 132.031 48.9554C131.363 49.7999 130.999 50.8239 131.276 51.8008ZM127.44 55.9434C128.206 56.8943 129.493 56.8163 129.219 55.492C128.995 54.4062 127.858 53.9737 126.839 54.102C126.814 54.7543 127.027 55.4041 127.44 55.9434Z" fill="#D76EB3"/>
<g filter="url(#filter4_d_1218_35971)">
<rect x="43.3115" y="10.6177" width="49.7705" height="44.6176" rx="2.49774" fill="white"/>
</g>
<path d="M43.3115 13.1154C43.3115 11.7359 44.4298 10.6177 45.8093 10.6177H90.5843C91.9637 10.6177 93.082 11.736 93.082 13.1154V33.4706H43.3115V13.1154Z" fill="#C2F0FF"/>
<rect x="46.5574" y="37.8235" width="43.2787" height="4.35294" fill="#E5E5EA"/>
<rect x="46.5574" y="45.4412" width="33.541" height="4.35294" fill="#E5E5EA"/>
<defs>
<filter id="filter0_d_1218_35971" x="100.025" y="91.6978" width="58.4277" height="53.6479" filterUnits="userSpaceOnUse" color-interpolation-filters="sRGB">
<feFlood flood-opacity="0" result="BackgroundImageFix"/>
<feColorMatrix in="SourceAlpha" type="matrix" values="0 0 0 0 0 0 0 0 0 0 0 0 0 0 0 0 0 0 127 0" result="hardAlpha"/>
<feOffset dy="4"/>
<feGaussianBlur stdDeviation="2"/>
<feComposite in2="hardAlpha" operator="out"/>
<feColorMatrix type="matrix" values="0 0 0 0 0 0 0 0 0 0 0 0 0 0 0 0 0 0 0.25 0"/>
<feBlend mode="normal" in2="BackgroundImageFix" result="effect1_dropShadow_1218_35971"/>
<feBlend mode="normal" in="SourceGraphic" in2="effect1_dropShadow_1218_35971" result="shape"/>
</filter>
<filter id="filter1_d_1218_35971" x="39.3115" y="59.8328" width="58.3181" height="52.9863" filterUnits="userSpaceOnUse" color-interpolation-filters="sRGB">
<feFlood flood-opacity="0" result="BackgroundImageFix"/>
<feColorMatrix in="SourceAlpha" type="matrix" values="0 0 0 0 0 0 0 0 0 0 0 0 0 0 0 0 0 0 127 0" result="hardAlpha"/>
<feOffset dy="4"/>
<feGaussianBlur stdDeviation="2"/>
<feComposite in2="hardAlpha" operator="out"/>
<feColorMatrix type="matrix" values="0 0 0 0 0 0 0 0 0 0 0 0 0 0 0 0 0 0 0.25 0"/>
<feBlend mode="normal" in2="BackgroundImageFix" result="effect1_dropShadow_1218_35971"/>
<feBlend mode="normal" in="SourceGraphic" in2="effect1_dropShadow_1218_35971" result="shape"/>
</filter>
<filter id="filter2_d_1218_35971" x="160.539" y="75.7651" width="58.4277" height="53.6479" filterUnits="userSpaceOnUse" color-interpolation-filters="sRGB">
<feFlood flood-opacity="0" result="BackgroundImageFix"/>
<feColorMatrix in="SourceAlpha" type="matrix" values="0 0 0 0 0 0 0 0 0 0 0 0 0 0 0 0 0 0 127 0" result="hardAlpha"/>
<feOffset dy="4"/>
<feGaussianBlur stdDeviation="2"/>
<feComposite in2="hardAlpha" operator="out"/>
<feColorMatrix type="matrix" values="0 0 0 0 0 0 0 0 0 0 0 0 0 0 0 0 0 0 0.25 0"/>
<feBlend mode="normal" in2="BackgroundImageFix" result="effect1_dropShadow_1218_35971"/>
<feBlend mode="normal" in="SourceGraphic" in2="effect1_dropShadow_1218_35971" result="shape"/>
</filter>
<filter id="filter3_d_1218_35971" x="99.8958" y="41.0881" width="58.4277" height="53.6479" filterUnits="userSpaceOnUse" color-interpolation-filters="sRGB">
<feFlood flood-opacity="0" result="BackgroundImageFix"/>
<feColorMatrix in="SourceAlpha" type="matrix" values="0 0 0 0 0 0 0 0 0 0 0 0 0 0 0 0 0 0 127 0" result="hardAlpha"/>
<feOffset dy="4"/>
<feGaussianBlur stdDeviation="2"/>
<feComposite in2="hardAlpha" operator="out"/>
<feColorMatrix type="matrix" values="0 0 0 0 0 0 0 0 0 0 0 0 0 0 0 0 0 0 0.25 0"/>
<feBlend mode="normal" in2="BackgroundImageFix" result="effect1_dropShadow_1218_35971"/>
<feBlend mode="normal" in="SourceGraphic" in2="effect1_dropShadow_1218_35971" result="shape"/>
</filter>
<filter id="filter4_d_1218_35971" x="39.3115" y="10.6177" width="57.7705" height="52.6177" filterUnits="userSpaceOnUse" color-interpolation-filters="sRGB">
<feFlood flood-opacity="0" result="BackgroundImageFix"/>
<feColorMatrix in="SourceAlpha" type="matrix" values="0 0 0 0 0 0 0 0 0 0 0 0 0 0 0 0 0 0 127 0" result="hardAlpha"/>
<feOffset dy="4"/>
<feGaussianBlur stdDeviation="2"/>
<feComposite in2="hardAlpha" operator="out"/>
<feColorMatrix type="matrix" values="0 0 0 0 0 0 0 0 0 0 0 0 0 0 0 0 0 0 0.25 0"/>
<feBlend mode="normal" in2="BackgroundImageFix" result="effect1_dropShadow_1218_35971"/>
<feBlend mode="normal" in="SourceGraphic" in2="effect1_dropShadow_1218_35971" result="shape"/>
</filter>
</defs>
</svg>
